<svg xmlns="http://www.w3.org/2000/svg" width="30.124" height="30.124" viewBox="0 0 30.124 30.124">
  <g id="Group_1" data-name="Group 1" transform="translate(1350 -1048)" opacity="0.29">
    <g id="Path_6" data-name="Path 6" transform="translate(-1350 1048)" fill="none">
      <path d="M7.531,0H22.593a7.531,7.531,0,0,1,7.531,7.531V22.593a7.531,7.531,0,0,1-7.531,7.531H7.531A7.531,7.531,0,0,1,0,22.593V7.531A7.531,7.531,0,0,1,7.531,0Z" stroke="none"/>
      <path d="M 7.530899047851562 2.999998092651367 C 5.032548904418945 2.999998092651367 2.999998092651367 5.032548904418945 2.999998092651367 7.530899047851562 L 2.999998092651367 22.59269714355469 C 2.999998092651367 25.09104919433594 5.032548904418945 27.12359809875488 7.530899047851562 27.12359809875488 L 22.59269714355469 27.12359809875488 C 25.09104919433594 27.12359809875488 27.12359809875488 25.09104919433594 27.12359809875488 22.59269714355469 L 27.12359809875488 7.530899047851562 C 27.12359809875488 5.032548904418945 25.09104919433594 2.999998092651367 22.59269714355469 2.999998092651367 L 7.530899047851562 2.999998092651367 M 7.530899047851562 -1.9073486328125e-06 L 22.59269714355469 -1.9073486328125e-06 C 26.75189781188965 -1.9073486328125e-06 30.12359809875488 3.371698379516602 30.12359809875488 7.530899047851562 L 30.12359809875488 22.59269714355469 C 30.12359809875488 26.75189781188965 26.75189781188965 30.12359809875488 22.59269714355469 30.12359809875488 L 7.530899047851562 30.12359809875488 C 3.371698379516602 30.12359809875488 -1.9073486328125e-06 26.75189781188965 -1.9073486328125e-06 22.59269714355469 L -1.9073486328125e-06 7.530899047851562 C -1.9073486328125e-06 3.371698379516602 3.371698379516602 -1.9073486328125e-06 7.530899047851562 -1.9073486328125e-06 Z" stroke="none" fill="#000"/>
    </g>
    <g id="Path_7" data-name="Path 7" transform="translate(-1341.214 1056.786)" fill="none">
      <path d="M6.276,0A6.276,6.276,0,1,1,0,6.276,6.276,6.276,0,0,1,6.276,0Z" stroke="none"/>
      <path d="M 6.275749206542969 1.999999046325684 C 3.918088912963867 1.999999046325684 1.999999046325684 3.918088912963867 1.999999046325684 6.275749206542969 C 1.999999046325684 8.63340950012207 3.918088912963867 10.55149936676025 6.275749206542969 10.55149936676025 C 8.63340950012207 10.55149936676025 10.55149936676025 8.63340950012207 10.55149936676025 6.275749206542969 C 10.55149936676025 3.918088912963867 8.63340950012207 1.999999046325684 6.275749206542969 1.999999046325684 M 6.275749206542969 -9.5367431640625e-07 C 9.741748809814453 -9.5367431640625e-07 12.55149936676025 2.809749603271484 12.55149936676025 6.275749206542969 C 12.55149936676025 9.741748809814453 9.741748809814453 12.55149936676025 6.275749206542969 12.55149936676025 C 2.809749603271484 12.55149936676025 -9.5367431640625e-07 9.741748809814453 -9.5367431640625e-07 6.275749206542969 C -9.5367431640625e-07 2.809749603271484 2.809749603271484 -9.5367431640625e-07 6.275749206542969 -9.5367431640625e-07 Z" stroke="none" fill="#000"/>
    </g>
    <g id="Path_8" data-name="Path 8" transform="translate(-1328.662 1055.531)" fill="none">
      <path d="M1.255,0A1.255,1.255,0,1,1,0,1.255,1.255,1.255,0,0,1,1.255,0Z" stroke="none"/>
      <path d="M 1.255149841308594 -2.384185791015625e-07 C 1.948349833488464 -2.384185791015625e-07 2.510299921035767 0.5619498491287231 2.510299921035767 1.255149841308594 C 2.510299921035767 1.948349833488464 1.948349833488464 2.510299921035767 1.255149841308594 2.510299921035767 C 0.5619498491287231 2.510299921035767 -2.384185791015625e-07 1.948349833488464 -2.384185791015625e-07 1.255149841308594 C -2.384185791015625e-07 0.5619498491287231 0.5619498491287231 -2.384185791015625e-07 1.255149841308594 -2.384185791015625e-07 Z" stroke="none" fill="#000"/>
    </g>
  </g>
</svg>
