<svg xmlns="http://www.w3.org/2000/svg" width="32.397" height="28.312" viewBox="0 0 32.397 28.312">
  <path id="Path_3" data-name="Path 3" d="M344.377,238.4a11.142,11.142,0,0,1-3.7,1.133,7.523,7.523,0,0,0,2.771-3.9,10.252,10.252,0,0,1-4.166,1.6h0A6.451,6.451,0,0,0,334.447,235a6.936,6.936,0,0,0-6.674,7.179,8.425,8.425,0,0,0,.162,1.618h0a18.827,18.827,0,0,1-14.156-7.462,7.5,7.5,0,0,0,2.022,9.484,3.924,3.924,0,0,1-2.912-.809,6.9,6.9,0,0,0,5.157,7.037,5.015,5.015,0,0,1-2.791.223,6.431,6.431,0,0,0,5.966,4.874,10.455,10.455,0,0,1-9.242,2.993,19.091,19.091,0,0,0,10.435,3.175c10.779,0,19.131-9.4,18.686-20.991v-.243A12.132,12.132,0,0,0,344.377,238.4Z" transform="translate(-311.98 -235)" opacity="0.29"/>
</svg>
